<svg width="128" height="128" viewBox="0 0 128 128" xmlns="http://www.w3.org/2000/svg">
  <defs>
    <linearGradient id="grad1" x1="0%" y1="0%" x2="100%" y2="100%">
      <stop offset="0%" style="stop-color:#667eea;stop-opacity:1" />
      <stop offset="100%" style="stop-color:#764ba2;stop-opacity:1" />
    </linearGradient>
  </defs>
  
  <!-- 背景圆形 -->
  <circle cx="64" cy="64" r="60" fill="url(#grad1)" stroke="#fff" stroke-width="4"/>
  
  <!-- 待办清单图标 -->
  <rect x="30" y="25" width="68" height="78" rx="8" fill="white" opacity="0.9"/>
  
  <!-- 清单线条 -->
  <line x1="40" y1="45" x2="88" y2="45" stroke="#667eea" stroke-width="3" stroke-linecap="round"/>
  <line x1="40" y1="55" x2="88" y2="55" stroke="#667eea" stroke-width="3" stroke-linecap="round"/>
  <line x1="40" y1="65" x2="88" y2="65" stroke="#667eea" stroke-width="3" stroke-linecap="round"/>
  <line x1="40" y1="75" x2="88" y2="75" stroke="#667eea" stroke-width="3" stroke-linecap="round"/>
  <line x1="40" y1="85" x2="88" y2="85" stroke="#667eea" stroke-width="3" stroke-linecap="round"/>
  
  <!-- 勾选标记 -->
  <circle cx="45" cy="45" r="4" fill="#28a745"/>
  <circle cx="45" cy="55" r="4" fill="#28a745"/>
  <circle cx="45" cy="65" r="4" fill="#28a745"/>
  <circle cx="45" cy="75" r="4" fill="#ffc107"/>
  <circle cx="45" cy="85" r="4" fill="#ffc107"/>
  
  <!-- 勾选符号 -->
  <path d="M42 45 L44 47 L48 43" stroke="white" stroke-width="2" fill="none" stroke-linecap="round" stroke-linejoin="round"/>
  <path d="M42 55 L44 57 L48 53" stroke="white" stroke-width="2" fill="none" stroke-linecap="round" stroke-linejoin="round"/>
  <path d="M42 65 L44 67 L48 63" stroke="white" stroke-width="2" fill="none" stroke-linecap="round" stroke-linejoin="round"/>
</svg> 